<svg width="89" height="45" viewBox="0 0 89 45" fill="none" xmlns="http://www.w3.org/2000/svg">
<mask id="path-1-outside-1_1_7" maskUnits="userSpaceOnUse" x="0" y="5" width="17" height="39" fill="black">
<rect fill="white" y="5" width="17" height="39"/>
<path d="M7.29344 31.4V36.488C7.29344 36.648 7.37344 36.728 7.53344 36.728H9.45344C9.61344 36.728 9.69344 36.648 9.69344 36.488V27.848L5.90144 26.168C5.61344 26.072 5.21344 25.912 4.70144 25.688C4.18944 25.432 3.72544 25.064 3.30944 24.584C2.92544 24.104 2.73344 23.448 2.73344 22.616V11.672C2.73344 10.328 3.14944 9.256 3.98144 8.456C4.81344 7.624 5.90144 7.208 7.24544 7.208H9.74144C11.0854 7.208 12.1734 7.624 13.0054 8.456C13.8374 9.256 14.2534 10.328 14.2534 11.672V18.776L9.69344 18.392V11.912C9.69344 11.752 9.61344 11.672 9.45344 11.672H7.53344C7.37344 11.672 7.29344 11.752 7.29344 11.912V21.944L11.0854 23.624C11.3734 23.752 11.7734 23.928 12.2854 24.152C12.7974 24.376 13.2454 24.728 13.6294 25.208C14.0454 25.688 14.2534 26.344 14.2534 27.176V36.728C14.2534 38.072 13.8374 39.16 13.0054 39.992C12.1734 40.792 11.0854 41.192 9.74144 41.192H7.24544C5.90144 41.192 4.81344 40.792 3.98144 39.992C3.14944 39.16 2.73344 38.072 2.73344 36.728V31.4H7.29344Z"/>
</mask>
<path d="M7.29344 31.4V36.488C7.29344 36.648 7.37344 36.728 7.53344 36.728H9.45344C9.61344 36.728 9.69344 36.648 9.69344 36.488V27.848L5.90144 26.168C5.61344 26.072 5.21344 25.912 4.70144 25.688C4.18944 25.432 3.72544 25.064 3.30944 24.584C2.92544 24.104 2.73344 23.448 2.73344 22.616V11.672C2.73344 10.328 3.14944 9.256 3.98144 8.456C4.81344 7.624 5.90144 7.208 7.24544 7.208H9.74144C11.0854 7.208 12.1734 7.624 13.0054 8.456C13.8374 9.256 14.2534 10.328 14.2534 11.672V18.776L9.69344 18.392V11.912C9.69344 11.752 9.61344 11.672 9.45344 11.672H7.53344C7.37344 11.672 7.29344 11.752 7.29344 11.912V21.944L11.0854 23.624C11.3734 23.752 11.7734 23.928 12.2854 24.152C12.7974 24.376 13.2454 24.728 13.6294 25.208C14.0454 25.688 14.2534 26.344 14.2534 27.176V36.728C14.2534 38.072 13.8374 39.16 13.0054 39.992C12.1734 40.792 11.0854 41.192 9.74144 41.192H7.24544C5.90144 41.192 4.81344 40.792 3.98144 39.992C3.14944 39.16 2.73344 38.072 2.73344 36.728V31.4H7.29344Z" fill="white"/>
<path d="M7.29344 31.4H9.29344V29.4H7.29344V31.4ZM9.69344 27.848H11.6934V26.5466L10.5036 26.0194L9.69344 27.848ZM5.90144 26.168L6.71157 24.3394L6.62437 24.3008L6.53389 24.2706L5.90144 26.168ZM4.70144 25.688L3.80701 27.4769L3.85285 27.4998L3.8998 27.5203L4.70144 25.688ZM3.30944 24.584L1.7477 25.8334L1.77228 25.8641L1.79806 25.8939L3.30944 24.584ZM3.98144 8.456L5.36765 9.89767L5.38179 9.88408L5.39565 9.87021L3.98144 8.456ZM13.0054 8.456L11.5912 9.87021L11.6051 9.88408L11.6192 9.89767L13.0054 8.456ZM14.2534 18.776L14.0856 20.7689L16.2534 20.9515V18.776H14.2534ZM9.69344 18.392H7.69344V20.2307L9.52561 20.3849L9.69344 18.392ZM7.29344 21.944H5.29344V23.2454L6.48331 23.7726L7.29344 21.944ZM11.0854 23.624L11.8977 21.7964L11.8956 21.7954L11.0854 23.624ZM13.6294 25.208L12.0677 26.4574L12.0923 26.4881L12.1181 26.5179L13.6294 25.208ZM13.0054 39.992L14.3917 41.4337L14.4058 41.4201L14.4197 41.4062L13.0054 39.992ZM3.98144 39.992L2.56722 41.4062L2.58109 41.4201L2.59522 41.4337L3.98144 39.992ZM2.73344 31.4V29.4H0.733438V31.4H2.73344ZM5.29344 31.4V36.488H9.29344V31.4H5.29344ZM5.29344 36.488C5.29344 36.8763 5.39186 37.5349 5.93922 38.0822C6.48658 38.6296 7.14515 38.728 7.53344 38.728V34.728C7.76173 34.728 8.30029 34.7864 8.76765 35.2538C9.23501 35.7211 9.29344 36.2597 9.29344 36.488H5.29344ZM7.53344 38.728H9.45344V34.728H7.53344V38.728ZM9.45344 38.728C9.84173 38.728 10.5003 38.6296 11.0477 38.0822C11.595 37.5349 11.6934 36.8763 11.6934 36.488H7.69344C7.69344 36.2597 7.75186 35.7211 8.21922 35.2538C8.68658 34.7864 9.22515 34.728 9.45344 34.728V38.728ZM11.6934 36.488V27.848H7.69344V36.488H11.6934ZM10.5036 26.0194L6.71157 24.3394L5.09131 27.9966L8.88331 29.6766L10.5036 26.0194ZM6.53389 24.2706C6.33221 24.2034 5.99739 24.0719 5.50308 23.8557L3.8998 27.5203C4.42949 27.7521 4.89467 27.9406 5.26898 28.0654L6.53389 24.2706ZM5.59587 23.8991C5.3435 23.773 5.08354 23.5773 4.82082 23.2741L1.79806 25.8939C2.36733 26.5507 3.03537 27.091 3.80701 27.4769L5.59587 23.8991ZM4.87118 23.3346C4.85679 23.3166 4.73344 23.1537 4.73344 22.616H0.733438C0.733438 23.7423 0.994084 24.8914 1.7477 25.8334L4.87118 23.3346ZM4.73344 22.616V11.672H0.733438V22.616H4.73344ZM4.73344 11.672C4.73344 10.7748 4.99278 10.2581 5.36765 9.89767L2.59522 7.01433C1.30609 8.25388 0.733438 9.88121 0.733438 11.672H4.73344ZM5.39565 9.87021C5.79833 9.46754 6.34988 9.208 7.24544 9.208V5.208C5.453 5.208 3.82855 5.78046 2.56722 7.04179L5.39565 9.87021ZM7.24544 9.208H9.74144V5.208H7.24544V9.208ZM9.74144 9.208C10.637 9.208 11.1885 9.46754 11.5912 9.87021L14.4197 7.04179C13.1583 5.78046 11.5339 5.208 9.74144 5.208V9.208ZM11.6192 9.89767C11.9941 10.2581 12.2534 10.7748 12.2534 11.672H16.2534C16.2534 9.88121 15.6808 8.25388 14.3917 7.01433L11.6192 9.89767ZM12.2534 11.672V18.776H16.2534V11.672H12.2534ZM14.4213 16.7831L9.86126 16.3991L9.52561 20.3849L14.0856 20.7689L14.4213 16.7831ZM11.6934 18.392V11.912H7.69344V18.392H11.6934ZM11.6934 11.912C11.6934 11.5237 11.595 10.8651 11.0477 10.3178C10.5003 9.77043 9.84173 9.672 9.45344 9.672V13.672C9.22515 13.672 8.68658 13.6136 8.21922 13.1462C7.75186 12.6789 7.69344 12.1403 7.69344 11.912H11.6934ZM9.45344 9.672H7.53344V13.672H9.45344V9.672ZM7.53344 9.672C7.14515 9.672 6.48658 9.77043 5.93923 10.3178C5.39186 10.8651 5.29344 11.5237 5.29344 11.912H9.29344C9.29344 12.1403 9.23501 12.6789 8.76765 13.1462C8.30029 13.6136 7.76173 13.672 7.53344 13.672V9.672ZM5.29344 11.912V21.944H9.29344V11.912H5.29344ZM6.48331 23.7726L10.2753 25.4526L11.8956 21.7954L8.10357 20.1154L6.48331 23.7726ZM10.2732 25.4516C10.5664 25.582 10.9705 25.7597 11.4838 25.9843L13.0871 22.3197C12.5764 22.0963 12.1805 21.922 11.8977 21.7964L10.2732 25.4516ZM11.4838 25.9843C11.6701 26.0658 11.8655 26.2046 12.0677 26.4574L15.1912 23.9586C14.6254 23.2514 13.9247 22.6862 13.0871 22.3197L11.4838 25.9843ZM12.1181 26.5179C12.132 26.5339 12.2534 26.6734 12.2534 27.176H16.2534C16.2534 26.0146 15.9589 24.8421 15.1408 23.8981L12.1181 26.5179ZM12.2534 27.176V36.728H16.2534V27.176H12.2534ZM12.2534 36.728C12.2534 37.6236 11.9939 38.1751 11.5912 38.5778L14.4197 41.4062C15.681 40.1449 16.2534 38.5204 16.2534 36.728H12.2534ZM11.6192 38.5503C11.2208 38.9335 10.6598 39.192 9.74144 39.192V43.192C11.511 43.192 13.1261 42.6505 14.3917 41.4337L11.6192 38.5503ZM9.74144 39.192H7.24544V43.192H9.74144V39.192ZM7.24544 39.192C6.32704 39.192 5.76612 38.9335 5.36766 38.5503L2.59522 41.4337C3.86076 42.6505 5.47584 43.192 7.24544 43.192V39.192ZM5.39565 38.5778C4.99298 38.1751 4.73344 37.6236 4.73344 36.728H0.733438C0.733438 38.5204 1.3059 40.1449 2.56722 41.4062L5.39565 38.5778ZM4.73344 36.728V31.4H0.733438V36.728H4.73344ZM2.73344 33.4H7.29344V29.4H2.73344V33.4Z" fill="#BE50F4" mask="url(#path-1-outside-1_1_7)"/>
<mask id="path-3-outside-2_1_7" maskUnits="userSpaceOnUse" x="15" y="5" width="75" height="38" fill="black">
<rect fill="white" x="15" y="5" width="75" height="38"/>
<path d="M18.7961 41V11.864H17.6441L18.1241 7.4H23.3561V18.872L24.5561 17H25.8521C27.3241 17 28.4921 17.416 29.3561 18.248C30.2521 19.08 30.7001 20.152 30.7001 21.464V36.536H31.8521L31.3721 41H26.1401V21.704C26.1401 21.544 26.0601 21.464 25.9001 21.464H23.3561V41H18.7961ZM37.9252 41C36.4532 41 35.2692 40.584 34.3732 39.752C33.5092 38.888 33.0772 37.816 33.0772 36.536V21.464C33.0772 20.152 33.5092 19.08 34.3732 18.248C35.2692 17.416 36.4532 17 37.9252 17H38.1172C38.9812 17 39.7492 17.208 40.4212 17.624V17H44.9812V36.536H45.6532L46.1332 41H40.4212V39.128L39.2212 41H37.9252ZM37.8772 21.464C37.7172 21.464 37.6372 21.544 37.6372 21.704V36.296C37.6372 36.456 37.7172 36.536 37.8772 36.536H40.4212V21.464H37.8772ZM52.3672 7.4L52.4152 36.536H53.6152L54.0952 41H47.8552L47.8072 11.864H46.8472L47.3272 7.4H52.3672ZM59.9096 41C58.4376 41 57.2536 40.584 56.3576 39.752C55.4936 38.888 55.0616 37.816 55.0616 36.536V21.464C55.0616 20.152 55.4936 19.08 56.3576 18.248C57.2536 17.416 58.4376 17 59.9096 17H60.1016C60.9656 17 61.7336 17.208 62.4056 17.624V17H66.9656V36.536H67.6376L68.1176 41H62.4056V39.128L61.2056 41H59.9096ZM59.8616 21.464C59.7016 21.464 59.6216 21.544 59.6216 21.704V36.296C59.6216 36.456 59.7016 36.536 59.8616 36.536H62.4056V21.464H59.8616ZM69.2804 41V11.864H68.1284L68.6084 7.4H73.8404V18.872L75.0404 17H76.3364C77.8084 17 78.9764 17.416 79.8404 18.248C80.7364 19.08 81.1844 20.152 81.1844 21.464V36.536C81.1844 37.816 80.7364 38.888 79.8404 39.752C78.9764 40.584 77.8084 41 76.3364 41H76.1444C75.2804 41 74.5124 40.792 73.8404 40.376V41H69.2804ZM76.3844 21.464H73.8404V36.536H76.3844C76.5444 36.536 76.6244 36.456 76.6244 36.296V21.704C76.6244 21.544 76.5444 21.464 76.3844 21.464ZM87.4128 10.616L87.8928 15.08H83.3328V10.616H87.4128ZM87.8928 17V41H83.3328V21.464H82.6128L83.0928 17H87.8928Z"/>
</mask>
<path d="M18.7961 41V11.864H17.6441L18.1241 7.4H23.3561V18.872L24.5561 17H25.8521C27.3241 17 28.4921 17.416 29.3561 18.248C30.2521 19.08 30.7001 20.152 30.7001 21.464V36.536H31.8521L31.3721 41H26.1401V21.704C26.1401 21.544 26.0601 21.464 25.9001 21.464H23.3561V41H18.7961ZM37.9252 41C36.4532 41 35.2692 40.584 34.3732 39.752C33.5092 38.888 33.0772 37.816 33.0772 36.536V21.464C33.0772 20.152 33.5092 19.08 34.3732 18.248C35.2692 17.416 36.4532 17 37.9252 17H38.1172C38.9812 17 39.7492 17.208 40.4212 17.624V17H44.9812V36.536H45.6532L46.1332 41H40.4212V39.128L39.2212 41H37.9252ZM37.8772 21.464C37.7172 21.464 37.6372 21.544 37.6372 21.704V36.296C37.6372 36.456 37.7172 36.536 37.8772 36.536H40.4212V21.464H37.8772ZM52.3672 7.4L52.4152 36.536H53.6152L54.0952 41H47.8552L47.8072 11.864H46.8472L47.3272 7.4H52.3672ZM59.9096 41C58.4376 41 57.2536 40.584 56.3576 39.752C55.4936 38.888 55.0616 37.816 55.0616 36.536V21.464C55.0616 20.152 55.4936 19.08 56.3576 18.248C57.2536 17.416 58.4376 17 59.9096 17H60.1016C60.9656 17 61.7336 17.208 62.4056 17.624V17H66.9656V36.536H67.6376L68.1176 41H62.4056V39.128L61.2056 41H59.9096ZM59.8616 21.464C59.7016 21.464 59.6216 21.544 59.6216 21.704V36.296C59.6216 36.456 59.7016 36.536 59.8616 36.536H62.4056V21.464H59.8616ZM69.2804 41V11.864H68.1284L68.6084 7.4H73.8404V18.872L75.0404 17H76.3364C77.8084 17 78.9764 17.416 79.8404 18.248C80.7364 19.08 81.1844 20.152 81.1844 21.464V36.536C81.1844 37.816 80.7364 38.888 79.8404 39.752C78.9764 40.584 77.8084 41 76.3364 41H76.1444C75.2804 41 74.5124 40.792 73.8404 40.376V41H69.2804ZM76.3844 21.464H73.8404V36.536H76.3844C76.5444 36.536 76.6244 36.456 76.6244 36.296V21.704C76.6244 21.544 76.5444 21.464 76.3844 21.464ZM87.4128 10.616L87.8928 15.08H83.3328V10.616H87.4128ZM87.8928 17V41H83.3328V21.464H82.6128L83.0928 17H87.8928Z" fill="black"/>
<path d="M18.7961 41H17.2961V42.5H18.7961V41ZM18.7961 11.864H20.2961V10.364H18.7961V11.864ZM17.6441 11.864L16.1527 11.7036L15.9741 13.364H17.6441V11.864ZM18.1241 7.4V5.9H16.7767L16.6327 7.23963L18.1241 7.4ZM23.3561 7.4H24.8561V5.9H23.3561V7.4ZM23.3561 18.872H21.8561V23.9915L24.6189 19.6815L23.3561 18.872ZM24.5561 17V15.5H23.7359L23.2932 16.1905L24.5561 17ZM29.3561 18.248L28.3156 19.3285L28.3254 19.3379L28.3354 19.3472L29.3561 18.248ZM30.7001 36.536H29.2001V38.036H30.7001V36.536ZM31.8521 36.536L33.3435 36.6964L33.522 35.036H31.8521V36.536ZM31.3721 41V42.5H32.7194L32.8635 41.1604L31.3721 41ZM26.1401 41H24.6401V42.5H26.1401V41ZM23.3561 21.464V19.964H21.8561V21.464H23.3561ZM23.3561 41V42.5H24.8561V41H23.3561ZM20.2961 41V11.864H17.2961V41H20.2961ZM18.7961 10.364H17.6441V13.364H18.7961V10.364ZM19.1355 12.0244L19.6155 7.56036L16.6327 7.23963L16.1527 11.7036L19.1355 12.0244ZM18.1241 8.9H23.3561V5.9H18.1241V8.9ZM21.8561 7.4V18.872H24.8561V7.4H21.8561ZM24.6189 19.6815L25.8189 17.8095L23.2932 16.1905L22.0932 18.0625L24.6189 19.6815ZM24.5561 18.5H25.8521V15.5H24.5561V18.5ZM25.8521 18.5C27.0292 18.5 27.7917 18.824 28.3156 19.3285L30.3965 17.1675C29.1924 16.008 27.6189 15.5 25.8521 15.5V18.5ZM28.3354 19.3472C28.9016 19.873 29.2001 20.535 29.2001 21.464H32.2001C32.2001 19.769 31.6025 18.287 30.3767 17.1488L28.3354 19.3472ZM29.2001 21.464V36.536H32.2001V21.464H29.2001ZM30.7001 38.036H31.8521V35.036H30.7001V38.036ZM30.3607 36.3756L29.8807 40.8396L32.8635 41.1604L33.3435 36.6964L30.3607 36.3756ZM31.3721 39.5H26.1401V42.5H31.3721V39.5ZM27.6401 41V21.704H24.6401V41H27.6401ZM27.6401 21.704C27.6401 21.3928 27.5612 20.8839 27.1407 20.4633C26.7202 20.0428 26.2113 19.964 25.9001 19.964V22.964C25.7488 22.964 25.3599 22.9252 25.0194 22.5847C24.6789 22.2441 24.6401 21.8552 24.6401 21.704H27.6401ZM25.9001 19.964H23.3561V22.964H25.9001V19.964ZM21.8561 21.464V41H24.8561V21.464H21.8561ZM23.3561 39.5H18.7961V42.5H23.3561V39.5ZM34.3732 39.752L33.3125 40.8127L33.3322 40.8323L33.3525 40.8512L34.3732 39.752ZM34.3732 18.248L33.3525 17.1488L33.3425 17.1581L33.3327 17.1675L34.3732 18.248ZM40.4212 17.624L39.6317 18.8994L41.9212 20.3167V17.624H40.4212ZM40.4212 17V15.5H38.9212V17H40.4212ZM44.9812 17H46.4812V15.5H44.9812V17ZM44.9812 36.536H43.4812V38.036H44.9812V36.536ZM45.6532 36.536L47.1446 36.3756L47.0005 35.036H45.6532V36.536ZM46.1332 41V42.5H47.8031L47.6246 40.8396L46.1332 41ZM40.4212 41H38.9212V42.5H40.4212V41ZM40.4212 39.128H41.9212V34.0085L39.1584 38.3185L40.4212 39.128ZM39.2212 41V42.5H40.0414L40.484 41.8095L39.2212 41ZM40.4212 36.536V38.036H41.9212V36.536H40.4212ZM40.4212 21.464H41.9212V19.964H40.4212V21.464ZM37.9252 39.5C36.7502 39.5 35.9579 39.1766 35.3939 38.6528L33.3525 40.8512C34.5805 41.9914 36.1562 42.5 37.9252 42.5V39.5ZM35.4338 38.6913C34.8657 38.1232 34.5772 37.4392 34.5772 36.536H31.5772C31.5772 38.1928 32.1527 39.6528 33.3125 40.8127L35.4338 38.6913ZM34.5772 36.536V21.464H31.5772V36.536H34.5772ZM34.5772 21.464C34.5772 20.5173 34.8724 19.8496 35.4137 19.3285L33.3327 17.1675C32.1459 18.3104 31.5772 19.7867 31.5772 21.464H34.5772ZM35.3939 19.3472C35.9579 18.8234 36.7502 18.5 37.9252 18.5V15.5C36.1562 15.5 34.5805 16.0086 33.3525 17.1488L35.3939 19.3472ZM37.9252 18.5H38.1172V15.5H37.9252V18.5ZM38.1172 18.5C38.7292 18.5 39.2187 18.6438 39.6317 18.8994L41.2107 16.3486C40.2797 15.7722 39.2332 15.5 38.1172 15.5V18.5ZM41.9212 17.624V17H38.9212V17.624H41.9212ZM40.4212 18.5H44.9812V15.5H40.4212V18.5ZM43.4812 17V36.536H46.4812V17H43.4812ZM44.9812 38.036H45.6532V35.036H44.9812V38.036ZM44.1618 36.6964L44.6418 41.1604L47.6246 40.8396L47.1446 36.3756L44.1618 36.6964ZM46.1332 39.5H40.4212V42.5H46.1332V39.5ZM41.9212 41V39.128H38.9212V41H41.9212ZM39.1584 38.3185L37.9584 40.1905L40.484 41.8095L41.684 39.9375L39.1584 38.3185ZM39.2212 39.5H37.9252V42.5H39.2212V39.5ZM37.8772 19.964C37.566 19.964 37.057 20.0428 36.6365 20.4633C36.216 20.8839 36.1372 21.3928 36.1372 21.704H39.1372C39.1372 21.8552 39.0984 22.2441 38.7578 22.5847C38.4173 22.9252 38.0284 22.964 37.8772 22.964V19.964ZM36.1372 21.704V36.296H39.1372V21.704H36.1372ZM36.1372 36.296C36.1372 36.6072 36.216 37.1161 36.6365 37.5367C37.057 37.9572 37.566 38.036 37.8772 38.036V35.036C38.0284 35.036 38.4173 35.0748 38.7578 35.4153C39.0984 35.7559 39.1372 36.1448 39.1372 36.296H36.1372ZM37.8772 38.036H40.4212V35.036H37.8772V38.036ZM41.9212 36.536V21.464H38.9212V36.536H41.9212ZM40.4212 19.964H37.8772V22.964H40.4212V19.964ZM52.3672 7.4L53.8672 7.39753L53.8647 5.9H52.3672V7.4ZM52.4152 36.536L50.9152 36.5385L50.9177 38.036H52.4152V36.536ZM53.6152 36.536L55.1066 36.3756L54.9625 35.036H53.6152V36.536ZM54.0952 41V42.5H55.7651L55.5866 40.8396L54.0952 41ZM47.8552 41L46.3552 41.0025L46.3577 42.5H47.8552V41ZM47.8072 11.864L49.3072 11.8615L49.3047 10.364H47.8072V11.864ZM46.8472 11.864L45.3558 11.7036L45.1773 13.364H46.8472V11.864ZM47.3272 7.4V5.9H45.9798L45.8358 7.23963L47.3272 7.4ZM50.8672 7.40247L50.9152 36.5385L53.9152 36.5335L53.8672 7.39753L50.8672 7.40247ZM52.4152 38.036H53.6152V35.036H52.4152V38.036ZM52.1238 36.6964L52.6038 41.1604L55.5866 40.8396L55.1066 36.3756L52.1238 36.6964ZM54.0952 39.5H47.8552V42.5H54.0952V39.5ZM49.3552 40.9975L49.3072 11.8615L46.3072 11.8665L46.3552 41.0025L49.3552 40.9975ZM47.8072 10.364H46.8472V13.364H47.8072V10.364ZM48.3386 12.0244L48.8186 7.56036L45.8358 7.23963L45.3558 11.7036L48.3386 12.0244ZM47.3272 8.9H52.3672V5.9H47.3272V8.9ZM56.3576 39.752L55.2969 40.8127L55.3165 40.8323L55.3369 40.8512L56.3576 39.752ZM56.3576 18.248L55.3369 17.1488L55.3269 17.1581L55.3171 17.1675L56.3576 18.248ZM62.4056 17.624L61.616 18.8994L63.9056 20.3167V17.624H62.4056ZM62.4056 17V15.5H60.9056V17H62.4056ZM66.9656 17H68.4656V15.5H66.9656V17ZM66.9656 36.536H65.4656V38.036H66.9656V36.536ZM67.6376 36.536L69.129 36.3756L68.9849 35.036H67.6376V36.536ZM68.1176 41V42.5H69.7875L69.609 40.8396L68.1176 41ZM62.4056 41H60.9056V42.5H62.4056V41ZM62.4056 39.128H63.9056V34.0085L61.1427 38.3185L62.4056 39.128ZM61.2056 41V42.5H62.0258L62.4684 41.8095L61.2056 41ZM62.4056 36.536V38.036H63.9056V36.536H62.4056ZM62.4056 21.464H63.9056V19.964H62.4056V21.464ZM59.9096 39.5C58.7346 39.5 57.9423 39.1766 57.3782 38.6528L55.3369 40.8512C56.5649 41.9914 58.1406 42.5 59.9096 42.5V39.5ZM57.4182 38.6913C56.8501 38.1232 56.5616 37.4392 56.5616 36.536H53.5616C53.5616 38.1928 54.137 39.6528 55.2969 40.8127L57.4182 38.6913ZM56.5616 36.536V21.464H53.5616V36.536H56.5616ZM56.5616 21.464C56.5616 20.5173 56.8568 19.8496 57.398 19.3285L55.3171 17.1675C54.1303 18.3104 53.5616 19.7867 53.5616 21.464H56.5616ZM57.3782 19.3472C57.9423 18.8234 58.7346 18.5 59.9096 18.5V15.5C58.1406 15.5 56.5649 16.0086 55.3369 17.1488L57.3782 19.3472ZM59.9096 18.5H60.1016V15.5H59.9096V18.5ZM60.1016 18.5C60.7135 18.5 61.2031 18.6438 61.616 18.8994L63.1951 16.3486C62.264 15.7722 61.2176 15.5 60.1016 15.5V18.5ZM63.9056 17.624V17H60.9056V17.624H63.9056ZM62.4056 18.5H66.9656V15.5H62.4056V18.5ZM65.4656 17V36.536H68.4656V17H65.4656ZM66.9656 38.036H67.6376V35.036H66.9656V38.036ZM66.1462 36.6964L66.6262 41.1604L69.609 40.8396L69.129 36.3756L66.1462 36.6964ZM68.1176 39.5H62.4056V42.5H68.1176V39.5ZM63.9056 41V39.128H60.9056V41H63.9056ZM61.1427 38.3185L59.9427 40.1905L62.4684 41.8095L63.6684 39.9375L61.1427 38.3185ZM61.2056 39.5H59.9096V42.5H61.2056V39.5ZM59.8616 19.964C59.5503 19.964 59.0414 20.0428 58.6209 20.4633C58.2004 20.8839 58.1216 21.3928 58.1216 21.704H61.1216C61.1216 21.8552 61.0827 22.2441 60.7422 22.5847C60.4017 22.9252 60.0128 22.964 59.8616 22.964V19.964ZM58.1216 21.704V36.296H61.1216V21.704H58.1216ZM58.1216 36.296C58.1216 36.6072 58.2004 37.1161 58.6209 37.5367C59.0414 37.9572 59.5503 38.036 59.8616 38.036V35.036C60.0128 35.036 60.4017 35.0748 60.7422 35.4153C61.0827 35.7559 61.1216 36.1448 61.1216 36.296H58.1216ZM59.8616 38.036H62.4056V35.036H59.8616V38.036ZM63.9056 36.536V21.464H60.9056V36.536H63.9056ZM62.4056 19.964H59.8616V22.964H62.4056V19.964ZM69.2804 41H67.7804V42.5H69.2804V41ZM69.2804 11.864H70.7804V10.364H69.2804V11.864ZM68.1284 11.864L66.637 11.7036L66.4585 13.364H68.1284V11.864ZM68.6084 7.4V5.9H67.2611L67.117 7.23963L68.6084 7.4ZM73.8404 7.4H75.3404V5.9H73.8404V7.4ZM73.8404 18.872H72.3404V23.9915L75.1033 19.6815L73.8404 18.872ZM75.0404 17V15.5H74.2202L73.7776 16.1905L75.0404 17ZM79.8404 18.248L78.8 19.3285L78.8098 19.3379L78.8198 19.3472L79.8404 18.248ZM79.8404 39.752L80.8809 40.8325L80.8816 40.8318L79.8404 39.752ZM73.8404 40.376L74.63 39.1006L72.3404 37.6833V40.376H73.8404ZM73.8404 41V42.5H75.3404V41H73.8404ZM73.8404 21.464V19.964H72.3404V21.464H73.8404ZM73.8404 36.536H72.3404V38.036H73.8404V36.536ZM70.7804 41V11.864H67.7804V41H70.7804ZM69.2804 10.364H68.1284V13.364H69.2804V10.364ZM69.6198 12.0244L70.0998 7.56036L67.117 7.23963L66.637 11.7036L69.6198 12.0244ZM68.6084 8.9H73.8404V5.9H68.6084V8.9ZM72.3404 7.4V18.872H75.3404V7.4H72.3404ZM75.1033 19.6815L76.3033 17.8095L73.7776 16.1905L72.5776 18.0625L75.1033 19.6815ZM75.0404 18.5H76.3364V15.5H75.0404V18.5ZM76.3364 18.5C77.5136 18.5 78.2761 18.824 78.8 19.3285L80.8809 17.1675C79.6768 16.008 78.1033 15.5 76.3364 15.5V18.5ZM78.8198 19.3472C79.386 19.873 79.6844 20.535 79.6844 21.464H82.6844C82.6844 19.769 82.0869 18.287 80.8611 17.1488L78.8198 19.3472ZM79.6844 21.464V36.536H82.6844V21.464H79.6844ZM79.6844 36.536C79.6844 37.4217 79.3928 38.0998 78.7992 38.6722L80.8816 40.8318C82.08 39.6762 82.6844 38.2103 82.6844 36.536H79.6844ZM78.8 38.6715C78.2761 39.176 77.5136 39.5 76.3364 39.5V42.5C78.1033 42.5 79.6768 41.992 80.8809 40.8325L78.8 38.6715ZM76.3364 39.5H76.1444V42.5H76.3364V39.5ZM76.1444 39.5C75.5325 39.5 75.0429 39.3562 74.63 39.1006L73.0509 41.6514C73.982 42.2278 75.0284 42.5 76.1444 42.5V39.5ZM72.3404 40.376V41H75.3404V40.376H72.3404ZM73.8404 39.5H69.2804V42.5H73.8404V39.5ZM76.3844 19.964H73.8404V22.964H76.3844V19.964ZM72.3404 21.464V36.536H75.3404V21.464H72.3404ZM73.8404 38.036H76.3844V35.036H73.8404V38.036ZM76.3844 38.036C76.6957 38.036 77.2046 37.9572 77.6251 37.5367C78.0456 37.1161 78.1244 36.6072 78.1244 36.296H75.1244C75.1244 36.1448 75.1633 35.7559 75.5038 35.4153C75.8443 35.0748 76.2332 35.036 76.3844 35.036V38.036ZM78.1244 36.296V21.704H75.1244V36.296H78.1244ZM78.1244 21.704C78.1244 21.3928 78.0456 20.8839 77.6251 20.4633C77.2046 20.0428 76.6957 19.964 76.3844 19.964V22.964C76.2332 22.964 75.8443 22.9252 75.5038 22.5847C75.1633 22.2441 75.1244 21.8552 75.1244 21.704H78.1244ZM87.4128 10.616L88.9042 10.4556L88.7602 9.116H87.4128V10.616ZM87.8928 15.08V16.58H89.5627L89.3842 14.9196L87.8928 15.08ZM83.3328 15.08H81.8328V16.58H83.3328V15.08ZM83.3328 10.616V9.116H81.8328V10.616H83.3328ZM87.8928 17H89.3928V15.5H87.8928V17ZM87.8928 41V42.5H89.3928V41H87.8928ZM83.3328 41H81.8328V42.5H83.3328V41ZM83.3328 21.464H84.8328V19.964H83.3328V21.464ZM82.6128 21.464L81.1214 21.3036L80.9429 22.964H82.6128V21.464ZM83.0928 17V15.5H81.7455L81.6014 16.8396L83.0928 17ZM85.9214 10.7764L86.4014 15.2404L89.3842 14.9196L88.9042 10.4556L85.9214 10.7764ZM87.8928 13.58H83.3328V16.58H87.8928V13.58ZM84.8328 15.08V10.616H81.8328V15.08H84.8328ZM83.3328 12.116H87.4128V9.116H83.3328V12.116ZM86.3928 17V41H89.3928V17H86.3928ZM87.8928 39.5H83.3328V42.5H87.8928V39.5ZM84.8328 41V21.464H81.8328V41H84.8328ZM83.3328 19.964H82.6128V22.964H83.3328V19.964ZM84.1042 21.6244L84.5842 17.1604L81.6014 16.8396L81.1214 21.3036L84.1042 21.6244ZM83.0928 18.5H87.8928V15.5H83.0928V18.5Z" fill="white" mask="url(#path-3-outside-2_1_7)"/>
</svg>
